<?xml version="1.0" encoding="utf-8"?>
<!-- Generator: Adobe Illustrator 21.0.0, SVG Export Plug-In . SVG Version: 6.00 Build 0)  -->
<svg version="1.1" id="Layer_1" xmlns="http://www.w3.org/2000/svg" xmlns:xlink="http://www.w3.org/1999/xlink" x="0px" y="0px"
	 viewBox="0 0 600 100" style="enable-background:new 0 0 600 100;" xml:space="preserve">
<style type="text/css">
	.st0{fill:#6D9C3C;}
	.st1{fill:#3480C0;}
	.st2{fill:#4BA8A4;}
	.st3{fill:#ED5D58;}
	.st4{fill:#AF4C61;}
	.st5{fill:#F7C600;}
	.st6{fill:#92D050;}
</style>
<path class="st0" d="M514.8,1.7c16.8,16.6,16.8,16.6,52.1,48.8C531.8,83,531.8,83,514.8,99.4c-0.2,0,0.2,0,0,0
	C514.8,66.9,514.8,34.3,514.8,1.7c0.2,0,0.4,0,0.6,0"/>
<path class="st1" d="M465.9,99.4c-26,0-52.1,0-78.2,0c12.2-33.2,26.1-64.7,38.5-97.7c0.4,0,0.9,0,1.3,0
	C439.8,34.8,453.7,66.2,465.9,99.4z"/>
<path class="st2" d="M339.6,1.7c0,32.5,0,65.1,0,97.7c-19.6,0-39.1,0-58.6,0c0-32.6,0-65.2,0-97.7c6.5,0,13,0,19.5,0
	c0,12.8,0,25.6,0,38.4c5.2,1.5,13.2,0.2,19.6,0.6c0-13,0-26,0-39.1C326.6,1.7,333.1,1.7,339.6,1.7z"/>
<path class="st3" d="M232.1,29.1c-9,5.8-19.8,9.7-29.9,14.3c-10.3,4.3-19.7,9.4-29.9,13.7c0-18.5,0-36.9,0-55.4c0.4,0,0.9,0,1.3,0
	C192.8,11.2,212.8,19.8,232.1,29.1z"/>
<path class="st4" d="M202.2,43.4c0,18.6,0,37.3,0,56c-0.4,0-0.9,0-1.3,0c-19.2-9.7-39.6-18.1-58.6-28c9.5-5.3,19.9-9.6,30-14.3
	C182.5,52.8,191.9,47.7,202.2,43.4z"/>
<path class="st5" d="M93.4,99.4c-26.1,0-52.1,0-78.2,0c0-0.7,0-1.3,0-2C28.6,66,41.1,34,53.7,1.7c0.4,0,0.9,0,1.3,0
	C67.3,34.8,81.2,66.2,93.4,99.4z"/>
<path class="st6" d="M555.1,1.7c13.3,0,0,0,38.4,0c-11.2,20.9-11.2,20.9-26.7,48.8c-35.3-32.2-35.3-32.2-52.1-48.8
	C525.1,1.7,541.3,1.7,555.1,1.7z"/>
</svg>
